<svg width="512" height="512" viewBox="0 0 512 512" fill="none" xmlns="http://www.w3.org/2000/svg">
  <rect width="512" height="512" rx="120" fill="#0F0F0F"/>
  
  <path d="M140 120C140 108.954 148.954 100 160 100H200C211.046 100 220 108.954 220 120V392C220 403.046 211.046 412 200 412H160C148.954 412 140 403.046 140 392V120Z" fill="url(#paint0_linear)"/>
  
  <path d="M260 150.5C260 136.5 276.5 129 287.5 138L427.5 244C436.8 251.2 436.8 264.8 427.5 272L287.5 378C276.5 387 260 379.5 260 365.5V150.5Z" fill="url(#paint1_linear)"/>
  
  <defs>
    <linearGradient id="paint0_linear" x1="180" y1="100" x2="180" y2="412" gradientUnits="userSpaceOnUse">
      <stop stop-color="#7B2CBF"/>
      <stop offset="1" stop-color="#9D4EDD"/>
    </linearGradient>
    <linearGradient id="paint1_linear" x1="260" y1="258" x2="440" y2="258" gradientUnits="userSpaceOnUse">
      <stop stop-color="#E0AAFF"/>
      <stop offset="1" stop-color="#C77DFF"/>
    </linearGradient>
    
    <filter id="glow" x="-20%" y="-20%" width="140%" height="140%">
      <feGaussianBlur stdDeviation="10" result="blur"/>
      <feComposite in="SourceGraphic" in2="blur" operator="over"/>
    </filter>
  </defs>
</svg>